<svg width="20" height="20" viewBox="0 0 20 20" fill="none" xmlns="http://www.w3.org/2000/svg">
<path d="M5.8033 17.5077L17.9448 5.36621L14.6335 2.05491L2.49199 14.1964L5.8033 17.5077Z" fill="#28D2E4"/>
<path d="M18.7562 4.55486C19.6705 3.64049 19.6705 2.15791 18.7562 1.24345C17.8418 0.329005 16.3592 0.329005 15.4447 1.24345L14.6335 2.05466L17.945 5.36606L18.7562 4.55486Z" fill="#13829B"/>
<path d="M2.49186 14.1963L0.558594 19.4409L5.80327 17.5077L2.49186 14.1963Z" fill="#FFDB77"/>
<path d="M19.1503 0.849743C18.0174 -0.283173 16.1836 -0.283322 15.0505 0.849743C14.6315 1.26876 3.03802 12.8623 2.09755 13.8027C2.04403 13.8562 1.99921 13.9243 1.97089 13.999C1.97022 14.0007 1.96933 14.0024 1.96866 14.0041L0.0354659 19.2487C-0.128737 19.694 0.305817 20.1288 0.751371 19.9646L5.99597 18.0314C5.99775 18.0307 5.99939 18.0298 6.00117 18.0291C6.07617 18.0006 6.14441 17.9555 6.19741 17.9025C6.61234 17.4876 17.3089 6.79107 19.1503 4.94953C20.2834 3.81654 20.2834 1.98281 19.1503 0.849743ZM1.49961 18.5004L2.71355 15.2071L4.79296 17.2865L1.49961 18.5004ZM5.80315 16.7199L3.2802 14.1969L14.6335 2.84359L17.1565 5.36654L5.80315 16.7199ZM18.3619 4.16115L17.945 4.57809L15.422 2.05513L15.839 1.63812C16.5362 0.94095 17.6646 0.940876 18.3619 1.63812C19.0592 2.33537 19.0592 3.46383 18.3619 4.16115Z" fill="#22313F"/>
<path d="M12.8782 6.33316L6.77023 12.4411C6.5525 12.6589 6.5525 13.0119 6.77023 13.2295C6.98795 13.4472 7.34096 13.4472 7.55861 13.2295L13.6666 7.12154C13.8843 6.90382 13.8843 6.55081 13.6666 6.33316C13.4489 6.11551 13.0959 6.11551 12.8782 6.33316Z" fill="#22313F"/>
</svg>
