<svg width="71" height="34" viewBox="0 0 71 34" fill="none" xmlns="http://www.w3.org/2000/svg">
<path d="M0.144387 8.35754C0.144387 17.8547 10.4921 19.1369 10.4921 25.9749C10.4921 28.3492 9.43328 29.2039 7.74876 29.2039C6.06425 29.2039 5.00541 28.3492 5.00541 25.9749V23.6006H0V25.6425C0 30.9609 2.69522 34 7.89315 34C13.0911 34 15.7863 30.9609 15.7863 25.6425C15.7863 16.1453 5.43857 14.8631 5.43857 8.02514C5.43857 5.65084 6.40115 4.7486 8.08567 4.7486C9.77018 4.7486 10.7328 5.65084 10.7328 8.02514V9.40223H15.7382V8.35754C15.7382 3.0391 13.0911 0 7.94128 0C2.79148 0 0.144387 3.0391 0.144387 8.35754Z" fill="#04D833"/>
<path d="M30.563 0.379886H22.8143L17.4238 33.6201H22.2848L23.1993 27.5894H29.6967L30.6112 33.6201H35.9535L30.563 0.379886ZM26.4239 6.26815L28.9748 23.0782H23.8731L26.4239 6.26815Z" fill="#04D833"/>
<path d="M41.1435 0.379886H35.8012L40.9991 33.6201H48.8923L54.0902 0.379886H49.2292L45.1863 27.4944L41.1435 0.379886Z" fill="#04D833"/>
<path d="M61.8555 5.12849H71V0.379886H56.5613V33.6201H71V28.8715H61.8555V19.1369H69.123V14.3883H61.8555V5.12849Z" fill="#04D833"/>
</svg>
