<svg width="43" height="47" viewBox="0 0 43 47" fill="none" xmlns="http://www.w3.org/2000/svg">
<path d="M21.0034 1.28409C21.3111 1.10808 21.6889 1.10808 21.9966 1.28409L31.265 6.58652L40.4913 11.962C40.7975 12.1404 40.9864 12.4676 40.9878 12.8221L41.03 23.5L40.9878 34.1779C40.9864 34.5324 40.7975 34.8596 40.4913 35.038L31.265 40.4135L21.9966 45.7159C21.6889 45.8919 21.3111 45.8919 21.0034 45.7159L11.735 40.4135L2.50875 35.038C2.20249 34.8596 2.01357 34.5324 2.01217 34.1779L1.97 23.5L2.01217 12.8221C2.01357 12.4676 2.20249 12.1404 2.50875 11.962L11.735 6.58652L21.0034 1.28409Z" fill="white" stroke="#887CD2" stroke-width="2"/>
</svg>
